<?xml version="1.0"?>
<svg xmlns="http://www.w3.org/2000/svg" xmlns:xlink="http://www.w3.org/1999/xlink" xmlns:svgjs="http://svgjs.com/svgjs" version="1.1" width="512" height="512" x="0" y="0" viewBox="0 0 512.001 512.001" style="enable-background:new 0 0 512 512" xml:space="preserve"><g>
<g xmlns="http://www.w3.org/2000/svg">
	<g>
		<path d="M273.063,256.383l-64-111.047c-1.634-2.83-4.652-4.766-7.92-4.766H73.143c-3.268,0-6.286,1.935-7.92,4.766l-64,110.95    c-1.63,2.83-1.63,6.36,0,9.191l64,110.686c1.634,2.83,4.652,4.408,7.92,4.408h128.001c3.268,0,6.286-1.554,7.92-4.384l64-110.755    C274.693,262.602,274.693,259.213,273.063,256.383z M195.867,362.285H78.42L19.701,260.573L78.42,158.856h117.447l58.719,101.717    L195.867,362.285z" fill="#127e22" data-original="#000000" style=""/>
	</g>
</g>
<g xmlns="http://www.w3.org/2000/svg">
	<g>
		<path d="M510.779,119.193l-64-111.024c-1.634-2.83-4.652-4.742-7.92-4.742H310.857c-3.268,0-6.286,1.935-7.92,4.766l-64,110.95    c-1.629,2.83-1.629,6.267,0,9.097l64,110.804c1.634,2.83,4.652,4.384,7.92,4.384h128.001c3.268,0,6.286-1.554,7.92-4.384    l64-110.755C512.409,125.458,512.409,122.023,510.779,119.193z M433.581,225.143H316.135l-58.719-101.713l58.719-101.717h117.447    L492.3,123.429L433.581,225.143z" fill="#127e22" data-original="#000000" style=""/>
	</g>
</g>
<g xmlns="http://www.w3.org/2000/svg">
	<g>
		<path d="M510.779,384.24l-64-110.903c-1.634-2.83-4.652-4.766-7.92-4.766H310.857c-3.268,0-6.286,1.935-7.92,4.766l-64,110.95    c-1.629,2.83-1.629,6.361,0,9.191l64,110.686c1.634,2.83,4.652,4.409,7.92,4.409h128.001c3.268,0,6.286-1.554,7.92-4.384    l64-110.755C512.409,390.602,512.409,387.07,510.779,384.24z M433.581,490.286H316.135l-58.719-101.712l58.719-101.717h117.447    L492.3,388.573L433.581,490.286z" fill="#127e22" data-original="#000000" style=""/>
	</g>
</g>
<g xmlns="http://www.w3.org/2000/svg">
	<g>
		
			<rect x="21.511" y="210.676" transform="matrix(0.4856 -0.8742 0.8742 0.4856 -152.1841 181.0158)" width="112.412" height="18.286" fill="#127e22" data-original="#000000" style=""/>
	</g>
</g>
<g xmlns="http://www.w3.org/2000/svg">
	<g>
		<rect x="425.151" y="34.986" transform="matrix(0.848 -0.53 0.53 0.848 19.7672 243.4375)" width="18.286" height="104.54" fill="#127e22" data-original="#000000" style=""/>
	</g>
</g>
<g xmlns="http://www.w3.org/2000/svg">
	<g>
		<rect x="297.138" y="373.264" transform="matrix(0.848 -0.53 0.53 0.848 -178.9776 227.0107)" width="18.286" height="104.54" fill="#127e22" data-original="#000000" style=""/>
	</g>
</g>
<g xmlns="http://www.w3.org/2000/svg">
</g>
<g xmlns="http://www.w3.org/2000/svg">
</g>
<g xmlns="http://www.w3.org/2000/svg">
</g>
<g xmlns="http://www.w3.org/2000/svg">
</g>
<g xmlns="http://www.w3.org/2000/svg">
</g>
<g xmlns="http://www.w3.org/2000/svg">
</g>
<g xmlns="http://www.w3.org/2000/svg">
</g>
<g xmlns="http://www.w3.org/2000/svg">
</g>
<g xmlns="http://www.w3.org/2000/svg">
</g>
<g xmlns="http://www.w3.org/2000/svg">
</g>
<g xmlns="http://www.w3.org/2000/svg">
</g>
<g xmlns="http://www.w3.org/2000/svg">
</g>
<g xmlns="http://www.w3.org/2000/svg">
</g>
<g xmlns="http://www.w3.org/2000/svg">
</g>
<g xmlns="http://www.w3.org/2000/svg">
</g>
</g></svg>
