<?xml version="1.0" encoding="iso-8859-1"?>
<!-- Generator: Adobe Illustrator 19.0.0, SVG Export Plug-In . SVG Version: 6.00 Build 0)  -->
<svg version="1.1" id="Capa_1" xmlns="http://www.w3.org/2000/svg" xmlns:xlink="http://www.w3.org/1999/xlink" x="0px" y="0px"
	 viewBox="0 0 469.333 469.333" style="enable-background:new 0 0 469.333 469.333;" xml:space="preserve">
<path style="fill:#303C42;" d="M458.667,106.667h-96V53.333c0-2.833-1.125-5.542-3.125-7.542L316.875,3.125
	c-2-2-4.708-3.125-7.542-3.125H160c-2.833,0-5.542,1.125-7.542,3.125l-42.667,42.667c-2,2-3.125,4.708-3.125,7.542v53.333h-96
	C4.771,106.667,0,111.438,0,117.333v309.333c0,23.531,19.135,42.667,42.667,42.667h384c23.531,0,42.667-19.135,42.667-42.667
	V117.333C469.333,111.438,464.563,106.667,458.667,106.667z M298.667,106.667h-128V64h128V106.667z"/>
<polygon style="fill:#FAFAFA;" points="341.333,106.667 320,106.667 320,36.417 341.333,57.75 "/>
<rect x="170.667" y="21.333" style="fill:#E6E6E6;" width="128" height="21.333"/>
<g>
	<polygon style="fill:#FAFAFA;" points="128,57.75 149.333,36.417 149.333,106.667 128,106.667 	"/>
	<path style="fill:#FAFAFA;" d="M448,426.667c0,11.76-9.573,21.333-21.333,21.333h-384c-11.76,0-21.333-9.573-21.333-21.333V128H448
		V426.667z"/>
</g>
<path style="opacity:0.1;enable-background:new    ;" d="M426.667,426.667h-384c-11.76,0-21.333-9.573-21.333-21.333v21.333
	c0,11.76,9.573,21.333,21.333,21.333h384c11.76,0,21.333-9.573,21.333-21.333v-21.333C448,417.094,438.427,426.667,426.667,426.667z
	"/>
<linearGradient id="SVGID_1_" gradientUnits="userSpaceOnUse" x1="-59.1615" y1="623.0261" x2="-57.9115" y2="621.7761" gradientTransform="matrix(21.3333 0 0 -21.3333 1430.1112 13315.2227)">
	<stop  offset="0" style="stop-color:#000000;stop-opacity:0.18"/>
	<stop  offset="1" style="stop-color:#000000;stop-opacity:0"/>
</linearGradient>
<polygon style="fill:url(#SVGID_1_);" points="181.333,21.333 170.667,21.333 170.667,42.667 202.667,42.667 "/>
<linearGradient id="SVGID_2_" gradientUnits="userSpaceOnUse" x1="-67.7416" y1="617.2507" x2="-43.9055" y2="606.1321" gradientTransform="matrix(21.3333 0 0 -21.3333 1430.1112 13315.2227)">
	<stop  offset="0" style="stop-color:#FFFFFF;stop-opacity:0.2"/>
	<stop  offset="1" style="stop-color:#FFFFFF;stop-opacity:0"/>
</linearGradient>
<path style="fill:url(#SVGID_2_);" d="M458.667,106.667h-96V53.333c0-2.833-1.125-5.542-3.125-7.542L316.875,3.125
	c-2-2-4.708-3.125-7.542-3.125H160c-2.833,0-5.542,1.125-7.542,3.125l-42.667,42.667c-2,2-3.125,4.708-3.125,7.542v53.333h-96
	C4.771,106.667,0,111.438,0,117.333v309.333c0,23.531,19.135,42.667,42.667,42.667h384c23.531,0,42.667-19.135,42.667-42.667
	V117.333C469.333,111.438,464.563,106.667,458.667,106.667z M298.667,106.667h-128V64h128V106.667z"/>
<g>
</g>
<g>
</g>
<g>
</g>
<g>
</g>
<g>
</g>
<g>
</g>
<g>
</g>
<g>
</g>
<g>
</g>
<g>
</g>
<g>
</g>
<g>
</g>
<g>
</g>
<g>
</g>
<g>
</g>
</svg>
